<svg width="424.4" height="77.6" viewBox="0 0 424.4 77.6" xmlns="http://www.w3.org/2000/svg"><g id="svgGroup" stroke-linecap="round" fill-rule="evenodd" font-size="9pt" stroke="#000" stroke-width="0.25mm" fill="#000000" style="stroke:#000;stroke-width:0.25mm;fill:#000000"><path d="M 302.6 1.1 L 302.1 14.7 L 301.8 31.1 L 312.9 24.3 L 323.1 23.6 L 332.3 29.9 L 333.8 37.9 L 333.6 59 L 334.4 70.7 L 341.5 72.6 L 341 76.1 L 329.2 75.6 L 317 76.1 L 317.2 72.6 L 323.8 70.6 L 324.5 60.1 L 324.1 38.3 L 321.4 31.7 L 312.9 30.2 L 301.7 35.9 L 301.5 49.3 L 301.7 59 L 302 70.6 L 309.3 72.6 L 308.8 76.1 L 297 75.6 L 284.8 76.1 L 285 72.6 L 291.6 70.6 L 292.5 60.1 L 292.1 16.3 L 291.4 5.9 L 284.3 6.2 L 283.8 2.7 L 297.6 0 L 302.6 1.1 Z M 277.8 65.3 L 280.1 68.6 L 270.1 75.4 L 251.1 77.6 L 232.2 68.6 L 225.1 55.7 L 223.1 42.8 L 223.1 32.6 L 228.5 19.5 L 241.4 7.3 L 255.1 3.5 L 266.3 3.5 L 281.6 7.4 L 279.8 12.5 L 278.4 24.6 L 274.6 24.9 L 272.3 10.9 L 264.9 9 L 252.9 9 L 237.9 21.8 L 234.6 38.2 L 236 53.4 L 241.8 64.1 L 252.2 72.3 L 268.5 70.9 L 277.8 65.3 Z M 37.8 74.6 L 13.3 75.6 L 0 76.6 L 0.2 72.6 L 7.8 70.6 L 8.8 40 L 7.8 10.6 L 0.1 8.6 L 0.6 4.6 L 12.8 5.6 L 26.5 4.6 L 26.3 8.6 L 18.3 10.6 L 17.3 40 L 18.3 71 L 42.7 69.1 L 45.2 56.8 L 48.7 57.1 L 49.2 70.1 L 49.9 75.6 L 37.8 74.6 Z M 161.7 60.6 L 162.5 71.7 L 170.8 73 L 180.1 71.7 L 182.3 64.9 L 179.6 59.7 L 161 48.4 L 157 42.1 L 156.8 31.5 L 163.9 25.5 L 174.4 23.6 L 189.1 26.6 L 187 41.3 L 182.8 39.9 L 180.9 29.5 L 174 28.2 L 166.5 29.9 L 164.6 35.4 L 167 41.3 L 186.2 52.3 L 190.9 58.2 L 191.3 67.6 L 184.5 75.6 L 172.5 77.6 L 164.2 77.2 L 154.9 73.6 L 157.4 59.2 L 161.7 60.6 Z M 383.9 36 L 384 57.4 L 384.7 71.5 L 391.6 72.5 L 390.9 75.8 L 377 77 L 375.7 71.1 L 375.2 71.1 L 365.3 77 L 354.9 77 L 347.9 71.9 L 345.8 62.1 L 350.2 54.3 L 362.2 49.1 L 375.4 48.6 L 375 36.1 L 373.1 29.9 L 365 27.6 L 355.3 29.9 L 355 40.5 L 351.1 41.3 L 348.5 27.6 L 360 24.2 L 372.9 23.6 L 380.7 27.4 L 383.9 36 Z M 82.1 49.8 L 64.8 48.7 L 64.7 49.6 L 67.4 63.7 L 75.3 71.5 L 84.5 72.5 L 93.9 67.5 L 95.7 70.1 L 87.8 76.4 L 78.4 77.6 L 68.6 75.3 L 60.1 68.2 L 55 53.2 L 56.7 39.8 L 61.9 30.4 L 72.4 24.6 L 81.2 23.5 L 88.2 25.7 L 93.6 30.6 L 96.7 39.5 L 96.8 47.8 L 95.4 48.9 L 82.1 49.8 Z M 132.1 73.2 L 126.5 76.6 L 119.7 77.6 L 112.6 75.2 L 109.4 67.2 L 109.9 48.6 L 109.4 31.8 L 102.5 30.8 L 101.9 27.3 L 109.8 25.2 L 113.4 15.1 L 118.5 15.1 L 118.2 26.3 L 130.3 26.7 L 129.7 31.1 L 119.2 31.8 L 118.8 36.4 L 119.2 66.7 L 121.2 72.7 L 130.6 70.2 L 132.1 73.2 Z M 424.4 73.2 L 418.8 76.6 L 412 77.6 L 404.9 75.2 L 401.7 67.2 L 402.2 48.6 L 401.7 31.8 L 394.8 30.8 L 394.2 27.3 L 402.1 25.2 L 405.7 15.1 L 410.8 15.1 L 410.5 26.3 L 422.6 26.7 L 422 31.1 L 411.5 31.8 L 411.1 36.4 L 411.5 66.7 L 413.5 72.7 L 422.9 70.2 L 424.4 73.2 Z M 144.2 31.8 L 140.2 31.8 L 137.3 4.9 L 142.3 3.2 L 147.3 4.9 L 144.2 31.8 Z M 77.4 28 L 69.8 32.5 L 65.9 40.1 L 65.3 44.6 L 80.5 44.8 L 87.4 43.3 L 86.8 34 L 83.8 28.9 L 77.4 28 Z M 355.5 61.9 L 358.2 70 L 365.7 71.9 L 375.8 66.1 L 375.4 52.6 L 366.7 52.6 L 359 55.7 L 355.5 61.9 Z" vector-effect="non-scaling-stroke"/></g></svg>